HIERARCHY
ROOT Hips
{
	OFFSET -338.882294 -555.210510 88.995560
	CHANNELS 6 Xposition Yposition Zposition Zrotation Yrotation Xrotation
	JOINT Spine
	{
		OFFSET 0.000000 2.080078 8.814247
		CHANNELS 6 Xposition Yposition Zposition Zrotation Yrotation Xrotation
		JOINT Spine1
		{
			OFFSET 0.000000 0.000000 8.844139
			CHANNELS 6 Xposition Yposition Zposition Zrotation Yrotation Xrotation
			JOINT Spine2
			{
				OFFSET 0.000000 0.000000 11.682266
				CHANNELS 6 Xposition Yposition Zposition Zrotation Yrotation Xrotation
				JOINT Spine3
				{
					OFFSET 0.000000 0.000000 11.746704
					CHANNELS 6 Xposition Yposition Zposition Zrotation Yrotation Xrotation
					JOINT Neck
					{
						OFFSET 0.000000 0.000000 17.658264
						CHANNELS 6 Xposition Yposition Zposition Zrotation Yrotation Xrotation
						JOINT Neck1
						{
							OFFSET 0.000000 0.000000 5.101517
							CHANNELS 6 Xposition Yposition Zposition Zrotation Yrotation Xrotation
							JOINT Head
							{
								OFFSET 0.000000 0.000000 5.101517
								CHANNELS 6 Xposition Yposition Zposition Zrotation Yrotation Xrotation
								JOINT HeadEnd
								{
									OFFSET 0.000000 0.000000 11.655090
									CHANNELS 6 Xposition Yposition Zposition Zrotation Yrotation Xrotation
									End Site
									{
										OFFSET 0.000000 0.000000 0.100006
									}
								}
							}
						}
					}
					JOINT RightShoulder
					{
						OFFSET -2.625397 0.000000 11.175217
						CHANNELS 6 Xposition Yposition Zposition Zrotation Yrotation Xrotation
						JOINT RightArm
						{
							OFFSET 0.000000 0.000000 10.434723
							CHANNELS 6 Xposition Yposition Zposition Zrotation Yrotation Xrotation
							JOINT RightForeArm
							{
								OFFSET 0.000000 0.000000 29.628418
								CHANNELS 6 Xposition Yposition Zposition Zrotation Yrotation Xrotation
								JOINT RightHand
								{
									OFFSET 0.000000 0.000000 22.857605
									CHANNELS 6 Xposition Yposition Zposition Zrotation Yrotation Xrotation
									JOINT RightHandThumb1
									{
										OFFSET -2.867310 -2.944275 3.959564
										CHANNELS 6 Xposition Yposition Zposition Zrotation Yrotation Xrotation
										JOINT RightHandThumb2
										{
											OFFSET 0.000000 0.000000 3.350403
											CHANNELS 6 Xposition Yposition Zposition Zrotation Yrotation Xrotation
											JOINT RightHandThumb3
											{
												OFFSET 0.000000 0.000000 3.756516
												CHANNELS 6 Xposition Yposition Zposition Zrotation Yrotation Xrotation
												JOINT RightHandThumb4
												{
													OFFSET 0.000000 0.000000 3.147339
													CHANNELS 6 Xposition Yposition Zposition Zrotation Yrotation Xrotation
													End Site
													{
														OFFSET 0.000000 0.000000 0.100006
													}
												}
											}
										}
									}
									JOINT RightHandIndex1
									{
										OFFSET -0.086761 -2.345276 10.030899
										CHANNELS 6 Xposition Yposition Zposition Zrotation Yrotation Xrotation
										JOINT RightHandIndex2
										{
											OFFSET 0.000000 0.000000 4.061096
											CHANNELS 6 Xposition Yposition Zposition Zrotation Yrotation Xrotation
											JOINT RightHandIndex3
											{
												OFFSET 0.000000 0.000000 3.248871
												CHANNELS 6 Xposition Yposition Zposition Zrotation Yrotation Xrotation
												JOINT RightHandIndex4
												{
													OFFSET 0.000000 0.000000 2.639709
													CHANNELS 6 Xposition Yposition Zposition Zrotation Yrotation Xrotation
													End Site
													{
														OFFSET 0.000000 0.000000 0.100006
													}
												}
											}
										}
									}
									JOINT RightHandMiddle1
									{
										OFFSET 0.104095 -0.006775 9.502945
										CHANNELS 6 Xposition Yposition Zposition Zrotation Yrotation Xrotation
										JOINT RightHandMiddle2
										{
											OFFSET 0.000000 0.000000 4.568726
											CHANNELS 6 Xposition Yposition Zposition Zrotation Yrotation Xrotation
											JOINT RightHandMiddle3
											{
												OFFSET 0.000000 0.000000 3.654984
												CHANNELS 6 Xposition Yposition Zposition Zrotation Yrotation Xrotation
												JOINT RightHandMiddle4
												{
													OFFSET 0.000000 0.000000 2.741241
													CHANNELS 6 Xposition Yposition Zposition Zrotation Yrotation Xrotation
													End Site
													{
														OFFSET 0.000000 0.000000 0.100006
													}
												}
											}
										}
									}
									JOINT RightHandRing1
									{
										OFFSET 0.086761 2.267456 8.921707
										CHANNELS 6 Xposition Yposition Zposition Zrotation Yrotation Xrotation
										JOINT RightHandRing2
										{
											OFFSET 0.000000 0.000000 4.061096
											CHANNELS 6 Xposition Yposition Zposition Zrotation Yrotation Xrotation
											JOINT RightHandRing3
											{
												OFFSET 0.000000 0.000000 3.654984
												CHANNELS 6 Xposition Yposition Zposition Zrotation Yrotation Xrotation
												JOINT RightHandRing4
												{
													OFFSET 0.000000 0.000000 2.741241
													CHANNELS 6 Xposition Yposition Zposition Zrotation Yrotation Xrotation
													End Site
													{
														OFFSET 0.000000 0.000000 0.100006
													}
												}
											}
										}
									}
									JOINT RightHandPinky1
									{
										OFFSET -0.173492 4.467224 7.976990
										CHANNELS 6 Xposition Yposition Zposition Zrotation Yrotation Xrotation
										JOINT RightHandPinky2
										{
											OFFSET 0.000000 0.000000 3.350403
											CHANNELS 6 Xposition Yposition Zposition Zrotation Yrotation Xrotation
											JOINT RightHandPinky3
											{
												OFFSET 0.000000 0.000000 2.842758
												CHANNELS 6 Xposition Yposition Zposition Zrotation Yrotation Xrotation
												JOINT RightHandPinky4
												{
													OFFSET 0.000000 0.000000 2.639709
													CHANNELS 6 Xposition Yposition Zposition Zrotation Yrotation Xrotation
													End Site
													{
														OFFSET 0.000000 0.000000 0.100006
													}
												}
											}
										}
									}
									JOINT RightForeArmEnd
									{
										OFFSET 0.000000 0.000000 0.000000
										CHANNELS 6 Xposition Yposition Zposition Zrotation Yrotation Xrotation
										End Site
										{
											OFFSET 0.000000 0.000000 0.100006
										}
									}
								}
								JOINT RightArmEnd
								{
									OFFSET 0.000000 0.000000 0.000000
									CHANNELS 6 Xposition Yposition Zposition Zrotation Yrotation Xrotation
									End Site
									{
										OFFSET 0.000000 0.000000 0.100006
									}
								}
							}
						}
					}
					JOINT LeftShoulder
					{
						OFFSET 2.625397 0.000000 11.175217
						CHANNELS 6 Xposition Yposition Zposition Zrotation Yrotation Xrotation
						JOINT LeftArm
						{
							OFFSET 0.000000 0.000000 10.813629
							CHANNELS 6 Xposition Yposition Zposition Zrotation Yrotation Xrotation
							JOINT LeftForeArm
							{
								OFFSET 0.000000 0.000000 28.724777
								CHANNELS 6 Xposition Yposition Zposition Zrotation Yrotation Xrotation
								JOINT LeftHand
								{
									OFFSET 0.644379 0.328857 25.716171
									CHANNELS 6 Xposition Yposition Zposition Zrotation Yrotation Xrotation
									JOINT LeftHandThumb1
									{
										OFFSET 2.867310 -2.944275 3.959564
										CHANNELS 6 Xposition Yposition Zposition Zrotation Yrotation Xrotation
										JOINT LeftHandThumb2
										{
											OFFSET 0.000000 0.000000 3.350403
											CHANNELS 6 Xposition Yposition Zposition Zrotation Yrotation Xrotation
											JOINT LeftHandThumb3
											{
												OFFSET 0.000000 0.000000 3.756516
												CHANNELS 6 Xposition Yposition Zposition Zrotation Yrotation Xrotation
												JOINT LeftHandThumb4
												{
													OFFSET 0.000000 0.000000 3.100006
													CHANNELS 6 Xposition Yposition Zposition Zrotation Yrotation Xrotation
													End Site
													{
														OFFSET 0.000000 0.000000 0.100006
													}
												}
											}
										}
									}
									JOINT LeftHandIndex1
									{
										OFFSET 0.086761 -2.345276 10.030899
										CHANNELS 6 Xposition Yposition Zposition Zrotation Yrotation Xrotation
										JOINT LeftHandIndex2
										{
											OFFSET 0.000000 0.000000 4.061096
											CHANNELS 6 Xposition Yposition Zposition Zrotation Yrotation Xrotation
											JOINT LeftHandIndex3
											{
												OFFSET 0.000000 0.000000 3.248871
												CHANNELS 6 Xposition Yposition Zposition Zrotation Yrotation Xrotation
												JOINT LeftHandIndex4
												{
													OFFSET 0.000000 0.000000 2.639709
													CHANNELS 6 Xposition Yposition Zposition Zrotation Yrotation Xrotation
													End Site
													{
														OFFSET 0.000000 0.000000 0.100006
													}
												}
											}
										}
									}
									JOINT LeftHandMiddle1
									{
										OFFSET -0.104095 -0.006775 9.502945
										CHANNELS 6 Xposition Yposition Zposition Zrotation Yrotation Xrotation
										JOINT LeftHandMiddle2
										{
											OFFSET 0.000000 0.000000 4.568726
											CHANNELS 6 Xposition Yposition Zposition Zrotation Yrotation Xrotation
											JOINT LeftHandMiddle3
											{
												OFFSET 0.000000 0.000000 3.654984
												CHANNELS 6 Xposition Yposition Zposition Zrotation Yrotation Xrotation
												JOINT LeftHandMiddle4
												{
													OFFSET 0.000000 0.000000 2.741241
													CHANNELS 6 Xposition Yposition Zposition Zrotation Yrotation Xrotation
													End Site
													{
														OFFSET 0.000000 0.000000 0.100006
													}
												}
											}
										}
									}
									JOINT LeftHandRing1
									{
										OFFSET -0.086761 2.267456 8.921707
										CHANNELS 6 Xposition Yposition Zposition Zrotation Yrotation Xrotation
										JOINT LeftHandRing2
										{
											OFFSET 0.000000 0.000000 4.061096
											CHANNELS 6 Xposition Yposition Zposition Zrotation Yrotation Xrotation
											JOINT LeftHandRing3
											{
												OFFSET 0.000000 0.000000 3.654984
												CHANNELS 6 Xposition Yposition Zposition Zrotation Yrotation Xrotation
												JOINT LeftHandRing4
												{
													OFFSET 0.000000 0.000000 2.741241
													CHANNELS 6 Xposition Yposition Zposition Zrotation Yrotation Xrotation
													End Site
													{
														OFFSET 0.000000 0.000000 0.100006
													}
												}
											}
										}
									}
									JOINT LeftHandPinky1
									{
										OFFSET 0.173492 4.467224 7.976990
										CHANNELS 6 Xposition Yposition Zposition Zrotation Yrotation Xrotation
										JOINT LeftHandPinky2
										{
											OFFSET 0.000000 0.000000 3.350403
											CHANNELS 6 Xposition Yposition Zposition Zrotation Yrotation Xrotation
											JOINT LeftHandPinky3
											{
												OFFSET 0.000000 0.000000 2.842758
												CHANNELS 6 Xposition Yposition Zposition Zrotation Yrotation Xrotation
												JOINT LeftHandPinky4
												{
													OFFSET 0.000000 0.000000 2.639709
													CHANNELS 6 Xposition Yposition Zposition Zrotation Yrotation Xrotation
													End Site
													{
														OFFSET 0.000000 0.000000 0.100006
													}
												}
											}
										}
									}
									JOINT LeftForeArmEnd
									{
										OFFSET 0.000000 0.000000 0.000000
										CHANNELS 6 Xposition Yposition Zposition Zrotation Yrotation Xrotation
										End Site
										{
											OFFSET 0.000000 0.000000 0.100006
										}
									}
								}
								JOINT LeftArmEnd
								{
									OFFSET 0.000000 0.000000 0.000000
									CHANNELS 6 Xposition Yposition Zposition Zrotation Yrotation Xrotation
									End Site
									{
										OFFSET 0.000000 0.000000 0.100006
									}
								}
							}
						}
					}
				}
			}
		}
	}
	JOINT RightUpLeg
	{
		OFFSET -11.289948 0.000000 0.000000
		CHANNELS 6 Xposition Yposition Zposition Zrotation Yrotation Xrotation
		JOINT RightLeg
		{
			OFFSET 0.000000 0.000000 -38.200321
			CHANNELS 6 Xposition Yposition Zposition Zrotation Yrotation Xrotation
			JOINT RightFoot
			{
				OFFSET 0.000000 0.000000 -39.900856
				CHANNELS 6 Xposition Yposition Zposition Zrotation Yrotation Xrotation
				JOINT RightToeBase
				{
					OFFSET 0.000000 -15.261658 0.000001
					CHANNELS 6 Xposition Yposition Zposition Zrotation Yrotation Xrotation
					JOINT RightToeBaseEnd
					{
						OFFSET 0.000000 -7.370728 0.000001
						CHANNELS 6 Xposition Yposition Zposition Zrotation Yrotation Xrotation
						End Site
						{
							OFFSET 0.000000 0.000000 0.100000
						}
					}
				}
				JOINT RightLegEnd
				{
					OFFSET 0.000000 0.000000 0.000000
					CHANNELS 6 Xposition Yposition Zposition Zrotation Yrotation Xrotation
					End Site
					{
						OFFSET 0.000000 0.000000 0.100000
					}
				}
			}
			JOINT RightUpLegEnd
			{
				OFFSET 0.000000 0.000000 0.000000
				CHANNELS 6 Xposition Yposition Zposition Zrotation Yrotation Xrotation
				End Site
				{
					OFFSET 0.000000 0.000000 0.099998
				}
			}
		}
	}
	JOINT LeftUpLeg
	{
		OFFSET 11.315674 0.000000 0.000000
		CHANNELS 6 Xposition Yposition Zposition Zrotation Yrotation Xrotation
		JOINT LeftLeg
		{
			OFFSET 0.000000 0.000000 -38.200321
			CHANNELS 6 Xposition Yposition Zposition Zrotation Yrotation Xrotation
			JOINT LeftFoot
			{
				OFFSET 0.000000 0.000000 -39.900856
				CHANNELS 6 Xposition Yposition Zposition Zrotation Yrotation Xrotation
				JOINT LeftToeBase
				{
					OFFSET 0.000000 -15.261658 0.000001
					CHANNELS 6 Xposition Yposition Zposition Zrotation Yrotation Xrotation
					JOINT LeftToeBaseEnd
					{
						OFFSET 0.000000 -7.539978 0.000001
						CHANNELS 6 Xposition Yposition Zposition Zrotation Yrotation Xrotation
						End Site
						{
							OFFSET 0.000000 0.000000 0.100000
						}
					}
				}
				JOINT LeftLegEnd
				{
					OFFSET 0.000000 0.000000 0.000000
					CHANNELS 6 Xposition Yposition Zposition Zrotation Yrotation Xrotation
					End Site
					{
						OFFSET 0.000000 0.000000 0.100000
					}
				}
			}
			JOINT LeftUpLegEnd
			{
				OFFSET 0.000000 0.000000 0.000000
				CHANNELS 6 Xposition Yposition Zposition Zrotation Yrotation Xrotation
				End Site
				{
					OFFSET 0.000000 0.000000 0.099998
				}
			}
		}
	}
}
MOTION
Frames: 2
Frame Time: 0.016667
-35.854980 12.846741 86.640945 17.458541 2.658016 -9.461515 -0.000002 2.080049 8.814232 -0.246455 -6.207632 6.280454 -0.000014 -0.000027 8.844130 -0.279626 -3.670072 1.809661 -0.000003 0.000017 11.682266 9.125910 5.169323 1.714906 -0.000014 -0.000021 11.746719 3.120487 5.148623 0.237593 -0.000006 -0.000002 17.658283 -10.321213 -5.958479 12.289793 -0.000011 -0.000002 5.101512 -11.881876 3.095310 -1.551491 -0.000021 0.000028 5.101565 -1.276190 -1.259166 -16.925837 -0.000007 -0.000002 11.655060 0.000000 0.000000 0.000000 -2.625403 -0.000022 11.175187 15.046661 -90.705220 0.448055 -0.000015 -0.000031 10.434731 -36.382242 -21.379349 49.276919 -0.000010 -0.000011 29.628422 10.342197 1.515386 98.751906 -0.000061 -0.000061 22.857634 -39.854656 56.695973 3.074060 -2.867325 -2.944275 3.959557 32.315500 -13.910444 56.898471 0.000004 0.000019 3.350361 -5.383816 4.498545 -10.250472 0.000013 0.000000 3.756521 -3.652161 3.227390 -7.070024 -0.000010 -0.000008 3.147297 0.000001 0.000001 -0.000001 -0.086796 -2.345268 10.030907 -5.665308 18.363131 13.962198 0.000002 -0.000008 4.061101 0.577304 0.000026 -0.000007 0.000008 -0.000023 3.248893 0.072746 -0.000002 0.001349 -0.000002 -0.000004 2.639728 0.000000 -0.000000 -0.000000 0.104050 -0.006772 9.502960 -0.675536 16.694830 11.536378 -0.000024 -0.000022 4.568753 0.578295 -0.000024 -0.000006 0.000005 0.000029 3.654995 0.067040 -0.000005 -0.000003 -0.000002 -0.000003 2.741249 0.000000 0.000001 0.000001 0.086765 2.267511 8.921722 7.318785 14.381877 9.152397 -0.000012 -0.000009 4.061101 -1.042924 0.000043 0.000002 -0.000002 0.000003 3.654985 -0.033236 -0.000024 -0.001397 -0.000004 0.000002 2.741243 0.000000 0.000000 -0.000000 -0.173531 4.467290 7.977005 15.675496 12.067170 7.693087 -0.000014 0.000010 3.350395 -2.007316 0.000033 -0.000111 0.000012 -0.000015 2.842748 -0.005990 -0.000015 0.006702 0.000022 -0.000002 2.639706 0.000000 0.000001 -0.000001 -0.000029 0.000000 -0.000007 -0.000000 -0.000001 0.000000 0.000004 0.000025 -0.000001 -0.000004 0.000000 0.000000 2.625406 -0.000001 11.175229 -2.423140 87.326837 -0.225698 0.000031 0.000002 10.813599 -41.052237 53.239344 -40.766100 0.000027 0.000023 28.724846 -23.896279 1.514449 80.248255 0.644348 0.328793 25.716125 12.626483 -56.180515 4.821406 2.867294 -2.944290 3.959518 -32.936292 12.199613 59.928230 -0.000012 0.000026 3.350403 1.805646 -1.696585 -3.566583 -0.000001 -0.000026 3.756506 1.242624 -1.190222 -2.470249 -0.000007 0.000004 3.100000 -0.000001 -0.000001 0.000000 0.086746 -2.345284 10.030884 -14.560097 -25.835978 20.816181 -0.000010 0.000017 4.061132 0.538637 -0.044169 -0.000501 -0.000001 -0.000006 3.248887 0.036306 0.024467 0.000654 -0.000046 0.000008 2.639725 -0.000000 0.000001 0.000001 -0.104102 -0.006813 9.502930 -8.695341 -25.170439 16.875543 -0.000014 0.000028 4.568745 0.530458 0.000146 -0.000082 -0.000006 0.000023 3.654973 0.026110 -0.000002 0.000089 -0.000008 -0.000015 2.741243 0.000002 0.000000 0.000000 -0.086781 2.267450 8.921700 0.718180 -22.698551 11.276557 0.000013 0.000019 4.061109 -1.028869 0.000015 -0.000037 0.000009 -0.000005 3.654990 -0.036002 -0.000016 0.000082 0.000009 0.000005 2.741259 -0.000001 0.000001 0.000000 0.173485 4.467197 7.976990 10.375255 -19.349957 7.711907 -0.000015 0.000027 3.350409 -2.018264 0.000013 -0.000018 -0.000011 -0.000015 2.842788 -0.015375 -0.000009 -0.000018 0.000002 -0.000003 2.639730 0.000000 -0.000002 -0.000002 0.000011 0.000015 -0.000009 -0.000001 0.000001 -0.000002 -0.000001 0.000018 -0.000004 -0.000003 -0.000001 -0.000000 -11.290003 -0.000025 0.000004 -8.620044 7.343778 12.910516 -0.000036 -0.000059 -38.200321 -2.124795 0.333565 8.917749 -0.000021 -0.000003 -39.900860 -15.767731 -10.309025 16.164382 -0.000006 -15.261716 0.000020 2.795164 1.728901 -15.860017 0.000027 -7.370723 0.000001 -0.000001 0.000000 0.000000 -0.000017 -0.000056 0.000002 -0.000001 -0.000000 -0.000001 -0.000032 -0.000001 -0.000000 0.000000 0.000001 0.000001 11.315634 -0.000018 -0.000008 -3.462965 -18.895544 8.546460 -0.000046 0.000072 -38.200314 1.803329 -0.255714 8.098366 0.000007 -0.000006 -39.900852 13.976356 12.985791 25.067266 -0.000002 -15.261694 0.000020 -2.884033 -2.115972 -19.005619 -0.000032 -7.539979 0.000002 0.000000 -0.000000 0.000000 -0.000020 -0.000027 0.000001 0.000005 -0.000000 -0.000002 -0.000024 -0.000007 0.000002 0.000001 0.000000 0.000001 
-35.632568 12.843384 86.627274 17.278237 2.553500 -9.861229 0.000001 2.080086 8.814247 -0.280451 -6.054929 6.409384 0.000014 0.000010 8.844147 -0.297531 -3.661758 1.785378 0.000010 0.000029 11.682270 8.939370 5.182761 1.946227 -0.000011 0.000020 11.746682 3.051642 4.970476 0.398546 -0.000019 0.000000 17.658257 -10.171792 -6.408066 12.207723 -0.000017 0.000008 5.101502 -11.483974 2.900569 -1.581621 -0.000011 -0.000000 5.101563 -1.216382 -1.318234 -16.928689 0.000002 0.000002 11.655079 -0.000000 -0.000000 -0.000000 -2.625426 -0.000018 11.175179 14.901408 -91.357482 0.491106 0.000000 -0.000008 10.434723 -38.824247 -23.341123 49.082614 -0.000008 -0.000027 29.628420 11.681331 1.630255 95.675815 -0.000069 -0.000084 22.857609 -35.877416 55.580244 4.912056 -2.867340 -2.944290 3.959541 32.267364 -14.071137 56.625465 -0.000023 -0.000019 3.350389 -5.725511 4.732094 -10.867864 -0.000018 -0.000004 3.756496 -3.879381 3.402869 -7.492633 0.000002 -0.000024 3.147322 0.000003 0.000001 -0.000001 -0.086784 -2.345245 10.030907 -5.779122 17.512050 14.594461 -0.000012 -0.000020 4.061106 0.572483 0.000001 -0.000005 0.000006 -0.000023 3.248880 0.068209 -0.000002 0.001274 0.000006 0.000001 2.639735 -0.000000 0.000002 0.000003 0.104061 -0.006805 9.502953 -0.848483 15.681713 12.202020 -0.000043 -0.000026 4.568731 0.573370 -0.000014 -0.000006 -0.000010 0.000021 3.654987 0.062830 0.000003 -0.000005 0.000003 0.000000 2.741244 -0.000001 -0.000000 0.000001 0.086731 2.267437 8.921745 7.035315 13.010079 9.844550 0.000013 -0.000019 4.061118 -1.039879 0.000050 0.000001 -0.000013 -0.000006 3.654980 -0.030868 -0.000019 -0.001256 -0.000006 0.000002 2.741247 -0.000000 0.000002 0.000000 -0.173515 4.467243 7.976978 15.316841 10.481535 8.165509 -0.000013 0.000014 3.350410 -2.006677 -0.000005 -0.000101 0.000012 -0.000011 2.842745 -0.005461 0.000000 0.006130 -0.000003 0.000005 2.639693 -0.000001 -0.000000 -0.000000 -0.000037 -0.000000 -0.000016 0.000000 0.000000 0.000000 0.000001 -0.000009 0.000005 0.000001 0.000000 -0.000000 2.625404 -0.000012 11.175207 -2.691850 87.689875 -0.244090 0.000008 -0.000001 10.813637 -36.586246 55.753431 -36.929696 0.000008 0.000008 28.724762 -23.908710 1.357883 76.320226 0.644333 0.328903 25.716160 10.526793 -53.950493 5.654296 2.867287 -2.944275 3.959549 -32.873021 12.350631 59.650494 -0.000010 -0.000022 3.350392 2.116829 -1.968264 -4.165767 -0.000014 -0.000006 3.756527 1.454739 -1.383266 -2.884895 -0.000000 0.000003 3.099993 -0.000001 0.000001 0.000000 0.086765 -2.345299 10.030869 -14.217213 -24.708341 20.690031 -0.000028 -0.000011 4.061110 0.534738 0.000399 -0.000073 -0.000013 -0.000028 3.248879 0.032630 -0.000003 0.000542 -0.000005 -0.000005 2.639729 0.000001 -0.000001 -0.000001 -0.104107 -0.006775 9.502975 -8.219201 -23.231736 16.744199 0.000014 0.000000 4.568735 0.527034 -0.000070 -0.000075 0.000014 0.000007 3.654970 0.023174 0.000002 0.000077 0.000010 -0.000015 2.741230 0.000001 0.000001 0.000002 -0.086792 2.267453 8.921738 1.299828 -19.264180 11.621904 -0.000004 0.000027 4.061109 -1.025371 -0.000000 -0.000032 -0.000001 0.000001 3.655004 -0.031644 0.000002 0.000069 -0.000011 -0.000005 2.741291 0.000001 0.000002 -0.000001 0.173492 4.467232 7.977013 10.878514 -15.195040 8.520863 -0.000005 -0.000005 3.350391 -2.014903 0.000004 -0.000012 -0.000000 -0.000006 2.842776 -0.012556 -0.000003 -0.000010 -0.000013 0.000002 2.639714 -0.000001 0.000002 -0.000001 -0.000001 0.000004 0.000009 0.000000 0.000003 0.000001 -0.000014 -0.000005 0.000002 0.000001 0.000001 0.000000 -11.289989 -0.000063 0.000004 -8.783739 7.761647 13.417258 0.000031 0.000077 -38.200310 -2.151266 0.324475 8.573293 -0.000053 0.000001 -39.900856 -15.328865 -10.379534 16.284498 0.000020 -15.261675 0.000016 2.799503 1.741092 -15.728232 0.000035 -7.370726 0.000001 -0.000000 -0.000000 0.000000 -0.000037 -0.000055 0.000001 -0.000001 -0.000000 0.000001 -0.000032 -0.000004 -0.000002 0.000001 -0.000000 0.000001 11.315647 -0.000072 -0.000008 -3.291683 -18.682446 9.037922 -0.000029 0.000000 -38.200333 1.792288 -0.254008 8.072601 -0.000015 -0.000021 -39.900852 13.870729 13.026574 24.789584 -0.000033 -15.261697 0.000010 -2.892578 -2.090699 -18.815882 0.000002 -7.540028 0.000002 -0.000002 -0.000000 0.000001 0.000008 -0.000006 0.000001 0.000001 0.000001 -0.000001 -0.000041 0.000001 -0.000009 -0.000000 -0.000000 -0.000000 
